<svg width="128" height="128" viewBox="0 0 128 128" xmlns="http://www.w3.org/2000/svg">
  <!-- Gradient definitions -->
  <defs>
    <!-- Main background gradient -->
    <linearGradient id="iconBackgroundGradient" x1="0%" y1="0%" x2="100%" y2="100%">
      <stop offset="0%" style="stop-color:#2196f3;stop-opacity:1" />
      <stop offset="100%" style="stop-color:#1976d2;stop-opacity:1" />
    </linearGradient>
    
    <!-- Document gradient -->
    <linearGradient id="iconDocumentGradient" x1="0%" y1="0%" x2="100%" y2="100%">
      <stop offset="0%" style="stop-color:#FFFFFF;stop-opacity:1" />
      <stop offset="100%" style="stop-color:#e3f2fd;stop-opacity:1" />
    </linearGradient>
    
    <!-- Arrow gradient -->
    <linearGradient id="iconArrowGradient" x1="0%" y1="0%" x2="100%" y2="100%">
      <stop offset="0%" style="stop-color:#ff9800;stop-opacity:1" />
      <stop offset="100%" style="stop-color:#f57c00;stop-opacity:1" />
    </linearGradient>
    
    <!-- Shadow filter -->
    <filter id="iconShadow" x="-20%" y="-20%" width="140%" height="140%">
      <feDropShadow dx="1" dy="2" stdDeviation="2" flood-color="#000000" flood-opacity="0.3"/>
    </filter>
  </defs>
  
  <!-- Main background rounded rectangle -->
  <rect x="8" y="8" width="112" height="112" rx="20" ry="20" 
        fill="url(#iconBackgroundGradient)" 
        filter="url(#iconShadow)"/>
  
  <!-- Left input document -->
  <g transform="translate(24, 44)">
    <!-- Document body -->
    <rect x="0" y="0" width="20" height="28" rx="2" ry="2" 
          fill="url(#iconDocumentGradient)" stroke="#FFFFFF" stroke-width="1"/>
    <!-- Document corner -->
    <path d="M 16 0 L 20 0 L 20 4 Z" fill="#bbdefb" stroke="#FFFFFF" stroke-width="1"/>
    <path d="M 16 0 L 16 4 L 20 4" fill="none" stroke="#FFFFFF" stroke-width="1"/>
    <!-- Document content lines -->
    <line x1="4" y1="10" x2="14" y2="10" stroke="#1976d2" stroke-width="1" opacity="0.8"/>
    <line x1="4" y1="14" x2="12" y2="14" stroke="#1976d2" stroke-width="1" opacity="0.8"/>
    <line x1="4" y1="18" x2="14" y2="18" stroke="#1976d2" stroke-width="1" opacity="0.8"/>
    <line x1="4" y1="22" x2="10" y2="22" stroke="#1976d2" stroke-width="1" opacity="0.8"/>
  </g>
  
  <!-- Center conversion arrow -->
  <g transform="translate(64, 58)">
    <!-- Arrow body -->
    <circle cx="0" cy="0" r="12" fill="url(#iconArrowGradient)" filter="url(#iconShadow)"/>
    <!-- Arrow icon -->
    <path d="M -5 -3 L 3 0 L -5 3 M -2 0 L 5 0" 
          fill="none" stroke="#FFFFFF" stroke-width="2" 
          stroke-linecap="round" stroke-linejoin="round"/>
  </g>
  
  <!-- Right output document -->
  <g transform="translate(84, 44)">
    <!-- Document body -->
    <rect x="0" y="0" width="20" height="28" rx="2" ry="2" 
          fill="url(#iconDocumentGradient)" stroke="#FFFFFF" stroke-width="1"/>
    <!-- Document corner -->
    <path d="M 16 0 L 20 0 L 20 4 Z" fill="#bbdefb" stroke="#FFFFFF" stroke-width="1"/>
    <path d="M 16 0 L 16 4 L 20 4" fill="none" stroke="#FFFFFF" stroke-width="1"/>
    <!-- Document content lines (different style for converted) -->
    <line x1="4" y1="10" x2="14" y2="10" stroke="#0d47a1" stroke-width="1.5" opacity="0.9"/>
    <line x1="4" y1="14" x2="12" y2="14" stroke="#0d47a1" stroke-width="1.5" opacity="0.9"/>
    <line x1="4" y1="18" x2="14" y2="18" stroke="#0d47a1" stroke-width="1.5" opacity="0.9"/>
    <line x1="4" y1="22" x2="10" y2="22" stroke="#0d47a1" stroke-width="1.5" opacity="0.9"/>
  </g>
</svg> 